<svg width="32" height="33" viewBox="0 0 32 33" fill="none" xmlns="http://www.w3.org/2000/svg">
  <g clip-path="url(#clip0_20_46)">
    <path
      d="M16 0.5C11.7575 0.5 7.685 2.18675 4.6875 5.18625C1.68693 8.18696 0.000858621 12.2565 0 16.5C0 20.7417 1.6875 24.8142 4.6875 27.8137C7.685 30.8132 11.7575 32.5 16 32.5C20.2425 32.5 24.315 30.8132 27.3125 27.8137C30.3125 24.8142 32 20.7417 32 16.5C32 12.2583 30.3125 8.18575 27.3125 5.18625C24.315 2.18675 20.2425 0.5 16 0.5Z"
      fill="url(#paint0_linear_20_46)" />
    <path
      d="M7.2425 16.3311C11.9075 14.2991 15.0175 12.9594 16.5725 12.3121C21.0175 10.4638 21.94 10.1428 22.5425 10.1319C22.675 10.1298 22.97 10.1626 23.1625 10.3182C23.3225 10.4494 23.3675 10.6269 23.39 10.7516C23.41 10.8761 23.4375 11.1598 23.415 11.3813C23.175 13.9113 22.1325 20.0508 21.6025 22.8846C21.38 24.0836 20.9375 24.4856 20.51 24.5248C19.58 24.6103 18.875 23.9108 17.975 23.3211C16.5675 22.3978 15.7725 21.8233 14.405 20.9226C12.825 19.8816 13.85 19.3093 14.75 18.3743C14.985 18.1296 19.08 14.4058 19.1575 14.0681C19.1675 14.0258 19.1775 13.8683 19.0825 13.7853C18.99 13.7021 18.8525 13.7306 18.7525 13.7531C18.61 13.7851 16.3625 15.2721 12.0025 18.2138C11.365 18.6523 10.7875 18.8661 10.2675 18.8548C9.6975 18.8426 8.5975 18.5318 7.78 18.2663C6.78 17.9406 5.9825 17.7683 6.0525 17.2151C6.0875 16.9271 6.485 16.6323 7.2425 16.3311Z"
      fill="white" />
  </g>
  <defs>
    <linearGradient id="paint0_linear_20_46" x1="1600" y1="0.5" x2="1600" y2="3200.5" gradientUnits="userSpaceOnUse">
      <stop stop-color="#2AABEE" />
      <stop offset="1" stop-color="#229ED9" />
    </linearGradient>
    <clipPath id="clip0_20_46">
      <rect width="32" height="32" fill="white" transform="translate(0 0.5)" />
    </clipPath>
  </defs>
</svg>