<svg width="183" height="32" viewBox="0 0 183 32" fill="none" xmlns="http://www.w3.org/2000/svg">
<path d="M4.31401 14.96C4.60201 15.04 4.87401 15.096 5.13001 15.128C5.40201 15.144 5.63401 15.152 5.82601 15.152C6.13001 15.152 6.41801 15.12 6.69001 15.056C6.97801 14.976 7.22601 14.848 7.43401 14.672C7.64201 14.496 7.81001 14.264 7.93801 13.976C8.06601 13.672 8.13001 13.288 8.13001 12.824C8.13001 12.344 8.05801 11.952 7.91401 11.648C7.78601 11.328 7.61001 11.08 7.38601 10.904C7.16201 10.728 6.89801 10.608 6.59401 10.544C6.30601 10.48 6.00201 10.448 5.68201 10.448C5.21801 10.448 4.76201 10.496 4.31401 10.592V14.96ZM0.210012 26C0.258012 24.48 0.290012 22.968 0.306012 21.464C0.322012 19.944 0.330012 18.504 0.330012 17.144C0.330012 15.208 0.314012 13.368 0.282012 11.624C0.266012 9.88 0.242012 8.128 0.210012 6.368C0.994012 6.288 1.77801 6.224 2.56201 6.176C3.36201 6.112 4.14601 6.08 4.91401 6.08C6.01801 6.08 7.05001 6.168 8.01001 6.344C8.97001 6.52 9.80201 6.848 10.506 7.328C11.226 7.792 11.794 8.448 12.21 9.296C12.626 10.128 12.834 11.2 12.834 12.512C12.834 13.728 12.658 14.768 12.306 15.632C11.954 16.48 11.458 17.176 10.818 17.72C10.194 18.248 9.44201 18.632 8.56201 18.872C7.68201 19.112 6.70601 19.232 5.63401 19.232C5.36201 19.232 5.12201 19.224 4.91401 19.208C4.72201 19.192 4.50601 19.168 4.26601 19.136C4.26601 20.288 4.27401 21.432 4.29001 22.568C4.30601 23.704 4.35401 24.848 4.43401 26H0.210012ZM27.4888 6.344C27.5208 8.68 27.5688 10.704 27.6328 12.416C27.6968 14.112 27.7288 15.56 27.7288 16.76C27.7288 17.544 27.7048 18.328 27.6568 19.112C27.6088 19.88 27.5048 20.616 27.3448 21.32C27.1848 22.024 26.9528 22.68 26.6488 23.288C26.3608 23.88 25.9688 24.4 25.4728 24.848C24.9928 25.296 24.3928 25.648 23.6728 25.904C22.9528 26.144 22.0968 26.264 21.1048 26.264C20.0808 26.264 19.2008 26.136 18.4648 25.88C17.7448 25.608 17.1368 25.248 16.6408 24.8C16.1448 24.352 15.7448 23.824 15.4408 23.216C15.1528 22.592 14.9288 21.928 14.7688 21.224C14.6088 20.52 14.5048 19.792 14.4568 19.04C14.4088 18.288 14.3848 17.536 14.3848 16.784C14.3848 16.192 14.3928 15.56 14.4088 14.888C14.4248 14.216 14.4488 13.464 14.4808 12.632C14.5128 11.8 14.5448 10.872 14.5768 9.848C14.6248 8.824 14.6728 7.664 14.7208 6.368H18.9448C18.8968 7.808 18.8568 9.032 18.8248 10.04C18.7928 11.032 18.7608 11.864 18.7288 12.536C18.7128 13.208 18.6968 13.744 18.6808 14.144C18.6808 14.528 18.6728 14.824 18.6568 15.032C18.6568 15.24 18.6568 15.392 18.6568 15.488C18.6568 15.568 18.6568 15.632 18.6568 15.68C18.6568 17.232 18.8328 18.4 19.1848 19.184C19.5368 19.968 20.1688 20.36 21.0808 20.36C22.0088 20.36 22.6328 19.936 22.9528 19.088C23.2888 18.24 23.4568 16.952 23.4568 15.224C23.4568 15.144 23.4568 15.056 23.4568 14.96C23.4568 14.848 23.4488 14.68 23.4328 14.456C23.4328 14.232 23.4248 13.936 23.4088 13.568C23.4088 13.184 23.3928 12.68 23.3608 12.056C23.3448 11.416 23.3208 10.64 23.2888 9.728C23.2568 8.8 23.2168 7.68 23.1688 6.368L27.4888 6.344ZM41.6171 13.976L38.5211 25.16H36.2891L33.3851 14.288C33.4011 16.24 33.4331 18.208 33.4811 20.192C33.5451 22.176 33.5931 24.112 33.6251 26H29.8331C29.8651 24.352 29.8891 22.72 29.9051 21.104C29.9211 19.472 29.9291 17.832 29.9291 16.184C29.9291 14.536 29.9211 12.904 29.9051 11.288C29.8891 9.656 29.8651 8.016 29.8331 6.368H34.9691L37.5131 17.624L40.3691 6.368H45.2171C45.1691 9.632 45.1451 12.904 45.1451 16.184C45.1451 19.464 45.1691 22.736 45.2171 26H41.3771L41.6171 13.976ZM51.6081 14.96C51.8961 15.04 52.1681 15.096 52.4241 15.128C52.6961 15.144 52.9281 15.152 53.1201 15.152C53.4241 15.152 53.7121 15.12 53.9841 15.056C54.2721 14.976 54.5201 14.848 54.7281 14.672C54.9361 14.496 55.1041 14.264 55.2321 13.976C55.3601 13.672 55.4241 13.288 55.4241 12.824C55.4241 12.344 55.3521 11.952 55.2081 11.648C55.0801 11.328 54.9041 11.08 54.6801 10.904C54.4561 10.728 54.1921 10.608 53.8881 10.544C53.6001 10.48 53.2961 10.448 52.9761 10.448C52.5121 10.448 52.0561 10.496 51.6081 10.592V14.96ZM47.5041 26C47.5521 24.48 47.5841 22.968 47.6001 21.464C47.6161 19.944 47.6241 18.504 47.6241 17.144C47.6241 15.208 47.6081 13.368 47.5761 11.624C47.5601 9.88 47.5361 8.128 47.5041 6.368C48.2881 6.288 49.0721 6.224 49.8561 6.176C50.6561 6.112 51.4401 6.08 52.2081 6.08C53.3121 6.08 54.3441 6.168 55.3041 6.344C56.2641 6.52 57.0961 6.848 57.8001 7.328C58.5201 7.792 59.0881 8.448 59.5041 9.296C59.9201 10.128 60.1281 11.2 60.1281 12.512C60.1281 13.728 59.9521 14.768 59.6001 15.632C59.2481 16.48 58.7521 17.176 58.1121 17.72C57.4881 18.248 56.7361 18.632 55.8561 18.872C54.9761 19.112 54.0001 19.232 52.9281 19.232C52.6561 19.232 52.4161 19.224 52.2081 19.208C52.0161 19.192 51.8001 19.168 51.5601 19.136C51.5601 20.288 51.5681 21.432 51.5841 22.568C51.6001 23.704 51.6481 24.848 51.7281 26H47.5041ZM74.7829 6.344C74.8149 8.68 74.8629 10.704 74.9269 12.416C74.9909 14.112 75.0229 15.56 75.0229 16.76C75.0229 17.544 74.9989 18.328 74.9509 19.112C74.9029 19.88 74.7989 20.616 74.6389 21.32C74.4789 22.024 74.2469 22.68 73.9429 23.288C73.6549 23.88 73.2629 24.4 72.7669 24.848C72.2869 25.296 71.6869 25.648 70.9669 25.904C70.2469 26.144 69.3909 26.264 68.3989 26.264C67.3749 26.264 66.4949 26.136 65.7589 25.88C65.0389 25.608 64.4309 25.248 63.9349 24.8C63.4389 24.352 63.0389 23.824 62.7349 23.216C62.4469 22.592 62.2229 21.928 62.0629 21.224C61.9029 20.52 61.7989 19.792 61.7509 19.04C61.7029 18.288 61.6789 17.536 61.6789 16.784C61.6789 16.192 61.6869 15.56 61.7029 14.888C61.7189 14.216 61.7429 13.464 61.7749 12.632C61.8069 11.8 61.8389 10.872 61.8709 9.848C61.9189 8.824 61.9669 7.664 62.0149 6.368H66.2389C66.1909 7.808 66.1509 9.032 66.1189 10.04C66.0869 11.032 66.0549 11.864 66.0229 12.536C66.0069 13.208 65.9909 13.744 65.9749 14.144C65.9749 14.528 65.9669 14.824 65.9509 15.032C65.9509 15.24 65.9509 15.392 65.9509 15.488C65.9509 15.568 65.9509 15.632 65.9509 15.68C65.9509 17.232 66.1269 18.4 66.4789 19.184C66.8309 19.968 67.4629 20.36 68.3749 20.36C69.3029 20.36 69.9269 19.936 70.2469 19.088C70.5829 18.24 70.7509 16.952 70.7509 15.224C70.7509 15.144 70.7509 15.056 70.7509 14.96C70.7509 14.848 70.7429 14.68 70.7269 14.456C70.7269 14.232 70.7189 13.936 70.7029 13.568C70.7029 13.184 70.6869 12.68 70.6549 12.056C70.6389 11.416 70.6149 10.64 70.5829 9.728C70.5509 8.8 70.5109 7.68 70.4629 6.368L74.7829 6.344ZM76.8872 11.24C76.8872 10.216 77.0792 9.376 77.4632 8.72C77.8632 8.048 78.3592 7.52 78.9512 7.136C79.5592 6.736 80.2232 6.464 80.9432 6.32C81.6792 6.16 82.3832 6.08 83.0552 6.08C83.2472 6.08 83.4872 6.088 83.7752 6.104C84.0792 6.12 84.3912 6.144 84.7112 6.176C85.0472 6.208 85.3832 6.256 85.7192 6.32C86.0712 6.368 86.3992 6.44 86.7032 6.536C86.7352 6.952 86.7592 7.344 86.7752 7.712C86.7912 8.064 86.7992 8.472 86.7992 8.936C86.7992 9.4 86.7912 9.848 86.7752 10.28C86.7592 10.696 86.7352 11.096 86.7032 11.48C86.5752 11.464 86.4072 11.44 86.1992 11.408C86.0072 11.376 85.7992 11.352 85.5752 11.336C85.3672 11.32 85.1512 11.304 84.9272 11.288C84.7192 11.272 84.5192 11.264 84.3272 11.264C83.5592 11.264 82.9992 11.384 82.6472 11.624C82.2952 11.864 82.1192 12.192 82.1192 12.608C82.1192 12.848 82.1752 13.08 82.2872 13.304C82.3992 13.512 82.5432 13.712 82.7192 13.904C82.9112 14.096 83.1192 14.28 83.3432 14.456C83.5832 14.632 83.8232 14.8 84.0632 14.96C84.4472 15.232 84.8312 15.536 85.2152 15.872C85.6152 16.192 85.9752 16.584 86.2952 17.048C86.6152 17.496 86.8792 18.024 87.0872 18.632C87.2952 19.224 87.3992 19.912 87.3992 20.696C87.3992 21.72 87.2232 22.584 86.8712 23.288C86.5192 23.992 86.0632 24.568 85.5032 25.016C84.9592 25.448 84.3432 25.768 83.6552 25.976C82.9832 26.168 82.3112 26.264 81.6392 26.264C81.3352 26.264 80.9592 26.24 80.5112 26.192C80.0792 26.16 79.6392 26.104 79.1912 26.024C78.7432 25.96 78.3192 25.88 77.9192 25.784C77.5192 25.672 77.1992 25.544 76.9592 25.4C76.8952 25.112 76.8392 24.816 76.7912 24.512C76.7592 24.208 76.7432 23.872 76.7432 23.504C76.7432 23.248 76.7512 22.936 76.7672 22.568C76.7992 22.2 76.8312 21.824 76.8632 21.44C76.8952 21.056 76.9272 20.688 76.9592 20.336C77.0072 19.984 77.0472 19.688 77.0792 19.448C77.2552 19.544 77.5112 19.656 77.8472 19.784C78.1832 19.896 78.5432 20.008 78.9272 20.12C79.3272 20.232 79.7272 20.328 80.1272 20.408C80.5272 20.488 80.8792 20.528 81.1832 20.528C81.6952 20.528 82.0792 20.424 82.3352 20.216C82.5912 19.992 82.7192 19.696 82.7192 19.328C82.7192 18.928 82.5752 18.576 82.2872 18.272C81.9992 17.952 81.6392 17.64 81.2072 17.336C80.7752 17.032 80.3032 16.712 79.7912 16.376C79.2952 16.024 78.8312 15.616 78.3992 15.152C77.9672 14.688 77.6072 14.144 77.3192 13.52C77.0312 12.88 76.8872 12.12 76.8872 11.24ZM100.622 6.368C100.574 7.376 100.534 8.328 100.502 9.224C100.486 10.12 100.47 11.008 100.454 11.888C100.438 12.752 100.422 13.632 100.406 14.528C100.406 15.408 100.406 16.352 100.406 17.36C100.406 18.544 100.406 19.832 100.406 21.224C100.422 22.616 100.438 24.208 100.454 26H96.4703C96.5023 25.04 96.5263 24.04 96.5423 23C96.5583 21.944 96.5743 20.744 96.5903 19.4H93.0383C93.0383 20.344 93.0383 21.36 93.0383 22.448C93.0543 23.52 93.0703 24.704 93.0863 26H89.1023C89.1183 25.296 89.1343 24.576 89.1503 23.84C89.1663 23.104 89.1823 22.312 89.1983 21.464C89.2143 20.616 89.2223 19.688 89.2223 18.68C89.2223 17.672 89.2223 16.552 89.2223 15.32C89.2223 14.232 89.2223 13.296 89.2223 12.512C89.2223 11.712 89.2143 10.984 89.1983 10.328C89.1983 9.672 89.1983 9.04 89.1983 8.432C89.1983 7.808 89.1983 7.12 89.1983 6.368H93.2543C93.1903 7.696 93.1423 8.928 93.1103 10.064C93.0783 11.184 93.0543 12.32 93.0383 13.472H96.5903C96.5903 12.736 96.5903 12.072 96.5903 11.48C96.5903 10.872 96.5823 10.296 96.5663 9.752C96.5663 9.192 96.5663 8.648 96.5663 8.12C96.5663 7.576 96.5663 6.992 96.5663 6.368H100.622ZM107.157 6.368C107.109 7.328 107.069 8.176 107.037 8.912C107.021 9.648 107.005 10.352 106.989 11.024C106.973 11.696 106.957 12.392 106.941 13.112C106.941 13.816 106.941 14.624 106.941 15.536H107.037L111.309 6.344H115.773L111.069 15.92L116.061 26H111.573L107.037 16.496H106.941C106.941 17.088 106.941 17.76 106.941 18.512C106.941 19.264 106.941 20.056 106.941 20.888C106.957 21.704 106.965 22.552 106.965 23.432C106.981 24.296 106.989 25.152 106.989 26H102.765C102.781 25.296 102.797 24.568 102.813 23.816C102.829 23.048 102.845 22.224 102.861 21.344C102.877 20.448 102.885 19.488 102.885 18.464C102.885 17.424 102.885 16.28 102.885 15.032C102.885 13.944 102.885 13.024 102.885 12.272C102.885 11.504 102.877 10.808 102.861 10.184C102.861 9.56 102.861 8.96 102.861 8.384C102.861 7.792 102.861 7.12 102.861 6.368H107.157ZM116.365 26L119.917 6.368H125.845L129.373 26H125.317L124.717 22.064H121.021L120.445 26H116.365ZM121.669 17.768H124.069L122.869 9.848L121.669 17.768Z" fill="black"/>
<rect x="131.562" y="0.772949" width="50.743" height="30.674" rx="15.337" transform="rotate(-0.248351 131.562 0.772949)" fill="#F3A842"/>
<path d="M146.198 13.4531C146.36 13.4755 146.493 13.4865 146.597 13.4861C146.701 13.4856 146.811 13.4851 146.927 13.4846C147.551 13.4819 148.048 13.3641 148.417 13.1312C148.786 12.8983 148.97 12.591 148.968 12.2094C148.967 11.8624 148.804 11.5971 148.479 11.4135C148.166 11.2298 147.703 11.1392 147.09 11.1419C146.893 11.1428 146.714 11.1551 146.552 11.1789C146.402 11.1911 146.281 11.2148 146.188 11.2499L146.198 13.4531ZM143.516 23.0583C143.525 22.5262 143.529 22.0115 143.527 21.5142C143.536 21.0053 143.54 20.508 143.537 20.0222C143.547 19.5249 143.55 19.0276 143.548 18.5302C143.546 18.0329 143.544 17.5183 143.542 16.9863C143.535 15.4712 143.517 14.0198 143.488 12.6321C143.47 11.2443 143.436 10.007 143.385 8.92004C144.032 8.82471 144.697 8.75822 145.379 8.72057C146.062 8.67135 146.674 8.64556 147.218 8.64321C150.433 8.62927 152.045 9.55331 152.053 11.4153C152.056 12.1439 151.845 12.7694 151.419 13.2917C151.005 13.8023 150.451 14.117 149.758 14.2357C150.88 14.439 151.703 14.8691 152.227 15.5261C152.75 16.1715 153.014 17.0898 153.019 18.281C153.027 19.958 152.512 21.2035 151.474 22.0176C150.437 22.8201 148.819 23.2261 146.622 23.2356C146.194 23.2375 145.714 23.2222 145.182 23.1898C144.661 23.169 144.106 23.1251 143.516 23.0583ZM146.219 18.3799C146.335 18.4141 146.509 18.4422 146.74 18.4644C146.972 18.4865 147.197 18.4971 147.417 18.4961C148.145 18.493 148.694 18.3749 149.063 18.142C149.444 17.9091 149.633 17.5786 149.632 17.1507C149.63 16.7112 149.426 16.3767 149.02 16.1472C148.626 15.9176 148.076 15.8043 147.37 15.8074C147.22 15.808 147.052 15.8145 146.867 15.8269C146.694 15.8392 146.474 15.8575 146.208 15.8818L146.219 18.3799ZM158.372 8.59486C160.096 8.58739 161.37 9.19483 162.197 10.4172C163.023 11.6395 163.442 13.4188 163.452 15.755C163.462 18.1259 163.065 19.9549 162.261 21.2422C161.469 22.5294 160.194 23.1768 158.436 23.1844C157.568 23.1882 156.816 23.0295 156.178 22.7085C155.541 22.3758 155.012 21.8982 154.593 21.2754C154.174 20.6411 153.864 19.8676 153.664 18.9548C153.463 18.0304 153.36 16.9784 153.355 15.7988C153.345 13.4279 153.748 11.6393 154.564 10.4329C155.38 9.21502 156.649 8.60233 158.372 8.59486ZM158.416 18.7087C158.786 18.7071 159.11 18.6247 159.387 18.4616C159.675 18.2869 159.911 18.0545 160.095 17.7646C160.279 17.4631 160.416 17.1098 160.507 16.7046C160.597 16.2878 160.642 15.8308 160.64 15.3335C160.637 14.8362 160.589 14.3796 160.495 13.9636C160.4 13.5361 160.26 13.1666 160.074 12.8551C159.887 12.5437 159.649 12.3018 159.359 12.1296C159.081 11.9573 158.757 11.872 158.387 11.8736C158.017 11.8752 157.693 11.9691 157.416 12.1554C157.151 12.33 156.921 12.5739 156.726 12.887C156.542 13.2001 156.405 13.5708 156.314 13.9991C156.223 14.4158 156.179 14.8671 156.181 15.3528C156.183 15.8501 156.232 16.3067 156.326 16.7227C156.42 17.1271 156.56 17.4792 156.747 17.7791C156.945 18.0674 157.177 18.2977 157.444 18.47C157.722 18.6307 158.046 18.7103 158.416 18.7087ZM170.475 11.96L168.48 11.9686C168.461 12.9981 168.448 14.0448 168.441 15.1088C168.434 16.1613 168.433 17.3005 168.439 18.5264C168.442 19.3129 168.445 19.949 168.447 20.4347C168.449 20.9089 168.451 21.3021 168.452 21.6144C168.453 21.9151 168.455 22.1637 168.455 22.3603C168.468 22.5453 168.474 22.7419 168.475 22.9501L165.561 22.9627C165.57 22.4538 165.58 21.9275 165.589 21.3839C165.598 20.8287 165.601 20.2331 165.598 19.597C165.607 18.9493 165.61 18.2554 165.607 17.5152C165.615 16.7634 165.617 15.9364 165.613 15.0344C165.61 14.3751 165.608 13.8027 165.606 13.3169C165.604 12.8312 165.596 12.3859 165.583 11.9812L163.588 11.9899L163.574 8.78049L170.461 8.75064L170.475 11.96Z" fill="#2A1A0A"/>
</svg>
