<svg width="790" height="617" viewBox="0 0 790 617" fill="none" xmlns="http://www.w3.org/2000/svg">
<path d="M395.221 308.234L789.751 323.633C786.635 372.167 768.832 419.438 737.798 461.581L395.256 308.253L716.603 487.634C680.308 527.182 632.529 559.471 577.171 581.861L395.224 308.239L395.223 308.238L541.221 594.665C483.273 612.631 420.696 619.648 358.606 615.142L395.22 308.237L319.486 610.755C258.282 601.436 200.775 580.954 151.664 550.983L395.217 308.237L121.795 530.797C76.7681 497.151 42.5882 455.673 22.05 409.752L395.216 308.235L395.215 308.234L10.9162 380.177C-3.63872 332.887 -3.63874 283.581 10.9162 236.291L395.221 308.234ZM395.221 308.234L22.05 206.715C42.5882 160.795 76.7681 119.317 121.795 85.6704L395.221 308.234ZM395.221 308.234L151.664 65.4849C200.775 35.5141 258.282 15.032 319.486 5.71239L395.221 308.234ZM358.606 1.32567C420.696 -3.17999 483.273 3.8372 541.221 21.8032L395.221 308.234L358.606 1.32567ZM577.171 34.6079C632.529 56.9979 680.308 89.2858 716.603 128.833L395.221 308.234L577.171 34.6079ZM737.97 154.764C769.018 196.941 786.83 244.25 789.947 292.823L395.221 308.234L737.97 154.764Z" fill="url(#paint0_radial_169_7673)"/>
<defs>
<radialGradient id="paint0_radial_169_7673" cx="0" cy="0" r="1" gradientUnits="userSpaceOnUse" gradientTransform="translate(394.974 308.234) rotate(90) scale(308.234 394.974)">
<stop stop-color="#E7DCC6" stop-opacity="0.3"/>
<stop offset="1" stop-color="#E7DCC6" stop-opacity="0"/>
</radialGradient>
</defs>
</svg>
