<svg width="534" height="390" viewBox="0 0 534 390" fill="none" xmlns="http://www.w3.org/2000/svg">
<path d="M266.808 195L0.134113 204.741C2.24062 235.445 14.2737 265.35 35.2503 292.012L266.785 195.012L49.5765 308.495C74.1091 333.514 106.405 353.941 143.823 368.105L266.806 195.003L266.807 195.002L168.122 376.206C207.291 387.572 249.588 392.01 291.557 389.16L266.809 195.002L317.999 386.386C359.368 380.49 398.24 367.532 431.435 348.571L266.811 195.002L451.624 335.802C482.059 314.516 505.162 288.274 519.044 259.223L266.818 195.001L526.571 240.514C536.409 210.596 536.409 179.403 526.571 149.485L266.808 195ZM266.808 195L519.044 130.775C505.162 101.724 482.059 75.483 451.624 54.1971L266.808 195ZM266.808 195L431.435 41.4276C398.24 22.467 359.368 9.50907 317.999 3.61314L266.808 195ZM291.557 0.838729C249.588 -2.01169 207.291 2.42694 168.122 13.7928L266.808 195L291.557 0.838729ZM143.823 21.8934C106.405 36.0581 74.1091 56.4845 49.5765 81.5038L266.808 195L143.823 21.8934ZM35.1341 97.909C14.1475 124.592 2.10783 154.521 0.000323998 185.25L266.808 195L35.1341 97.909Z" fill="url(#paint0_radial_2050_1214)" fill-opacity="0.5"/>
<defs>
<radialGradient id="paint0_radial_2050_1214" cx="0" cy="0" r="1" gradientUnits="userSpaceOnUse" gradientTransform="translate(266.975 194.999) rotate(90) scale(194.999 266.974)">
<stop stop-color="#F1A907"/>
<stop offset="1" stop-color="white" stop-opacity="0.3"/>
</radialGradient>
</defs>
</svg>
