<svg width="1026" height="800" viewBox="0 0 1026 800" fill="none" xmlns="http://www.w3.org/2000/svg">
<path d="M513.012 400L1025 419.984C1020.96 482.967 997.853 544.31 957.58 599L513.058 400.026L930.074 632.811C882.974 684.133 820.971 726.034 749.133 755.09L513.016 400.007L513.015 400.006L702.478 771.706C627.278 795.021 546.071 804.127 465.495 798.28L513.011 400.004L513.01 400.003L414.728 792.587C335.304 780.492 260.676 753.913 196.944 715.019L513.008 400.003L158.183 688.825C99.7512 645.161 55.3959 591.334 28.743 531.742L513.001 400.001L14.2928 493.362C-4.5953 431.992 -4.59534 368.007 14.2928 306.637L513.012 400ZM513.012 400L28.743 268.259C55.3959 208.667 99.7511 154.839 158.183 111.176L513.012 400ZM513.012 400L196.944 84.9812C260.676 46.0876 335.304 19.5071 414.728 7.41284L513.012 400ZM465.495 1.72046C546.071 -4.12669 627.278 4.97893 702.478 28.2937L513.012 400L465.495 1.72046ZM749.133 44.9109C820.971 73.9667 882.974 115.868 930.074 167.189L513.012 400L749.133 44.9109ZM957.803 200.84C998.095 255.573 1021.21 316.966 1025.26 380L513.012 400L957.803 200.84Z" fill="url(#paint0_radial_23_1775)"/>
<defs>
<radialGradient id="paint0_radial_23_1775" cx="0" cy="0" r="1" gradientUnits="userSpaceOnUse" gradientTransform="translate(512.691 400) rotate(90) scale(400 512.564)">
<stop stop-color="#E7DCC6" stop-opacity="0.3"/>
<stop offset="1" stop-color="#E7DCC6" stop-opacity="0"/>
</radialGradient>
</defs>
</svg>
